<?xml version="1.0" standalone="no"?>
<!DOCTYPE svg PUBLIC "-//W3C//DTD SVG 20010904//EN"
 "http://www.w3.org/TR/2001/REC-SVG-20010904/DTD/svg10.dtd">
<svg version="1.0" xmlns="http://www.w3.org/2000/svg"
 width="48.000000pt" height="48.000000pt" viewBox="0 0 48.000000 48.000000"
 preserveAspectRatio="xMidYMid meet">

<g transform="translate(0.000000,48.000000) scale(0.100000,-0.100000)"
fill="#000000" stroke="none">
<path d="M224 428 c3 -17 8 -34 11 -36 8 -8 14 3 21 36 6 28 4 32 -16 32 -20
0 -22 -4 -16 -32z"/>
<path d="M163 330 c-61 -39 -94 -55 -101 -48 -16 16 -32 0 -32 -33 0 -17 6
-32 15 -35 10 -4 15 -19 15 -43 0 -47 14 -61 62 -61 38 0 38 0 38 -40 0 -22 4
-40 8 -40 4 0 25 18 47 40 38 39 40 39 119 42 l81 3 3 45 c2 26 10 48 18 53
19 11 18 66 -1 73 -10 4 -15 19 -15 43 0 53 -13 61 -94 60 -69 -1 -74 -3 -163
-59z m37 -45 c0 -20 -5 -25 -25 -25 -20 0 -25 5 -25 25 0 20 5 25 25 25 20 0
25 -5 25 -25z m130 0 c0 -20 -5 -25 -25 -25 -20 0 -25 5 -25 25 0 20 5 25 25
25 20 0 25 -5 25 -25z m-116 -75 c17 -6 36 -6 56 2 39 13 49 4 25 -22 -22 -25
-81 -27 -107 -3 -33 30 -21 41 26 23z"/>
</g>
</svg>
