<svg width="393" height="74" viewBox="0 0 393 74" fill="none" xmlns="http://www.w3.org/2000/svg">
<g clip-path="url(#clip0_9468_9204)">
<path fill-rule="evenodd" clip-rule="evenodd" d="M290.478 0V57.349H279.764L278.401 54.2184C274.852 57.2021 270.357 58.8179 265.726 58.7751C252.828 58.7751 243.643 49.3533 243.643 36.2826C243.643 23.212 252.824 13.833 265.726 13.833C269.412 13.8065 273.032 14.8201 276.171 16.758V0H290.478ZM277.068 36.2826C277.068 30.7794 273.082 26.6381 267.67 26.6381C262.257 26.6381 258.271 30.7794 258.271 36.2826C258.271 41.7859 262.257 45.9229 267.67 45.9229C273.082 45.9229 277.068 41.7859 277.068 36.2826Z" fill="#006A61"/>
<path fill-rule="evenodd" clip-rule="evenodd" d="M217.391 13.833C203.691 13.833 193.826 23.2206 193.826 36.2826H193.818C193.818 49.3062 203.725 58.728 217.383 58.728C231.041 58.728 240.948 49.3447 240.948 36.2826C240.948 23.2206 231.092 13.833 217.391 13.833ZM226.448 36.2826C226.448 41.8501 222.663 45.7045 217.383 45.7045C212.107 45.7045 208.317 41.8501 208.317 36.2826C208.317 30.7152 212.102 26.8608 217.383 26.8608C222.663 26.8608 226.448 30.7152 226.448 36.2826Z" fill="#006A61"/>
<path d="M167.071 15.5836C169.306 14.5095 171.755 13.9578 174.235 13.97C183.24 13.97 189.221 21.0021 189.221 30.925V57.3662H174.747V32.7323C174.747 28.3512 173.124 26.2098 170.048 26.2098C166.071 26.2098 164.033 28.9593 164.033 34.2612V57.3662H149.935V32.7323C149.935 28.4668 148.333 26.2098 145.3 26.2098C141.361 26.2098 139.225 29.0236 139.225 34.2612V57.349H124.747V15.2163H131.215C132.322 15.2149 133.406 15.5333 134.338 16.1332C135.27 16.7332 136.01 17.5894 136.469 18.5996L136.99 19.743C138.499 17.9473 140.379 16.5012 142.499 15.5045C144.62 14.5078 146.931 13.9843 149.273 13.97C154.399 13.97 158.714 16.2784 161.328 20.1713C162.872 18.2264 164.835 16.6578 167.071 15.5836Z" fill="#006A61"/>
<path fill-rule="evenodd" clip-rule="evenodd" d="M342.739 57.3062V15.1692H331.943L330.465 18.4154C326.847 15.4414 322.302 13.8375 317.623 13.8844C304.773 13.8844 295.583 23.122 295.583 36.2184C295.583 49.3148 304.773 58.7109 317.623 58.7109C322.232 58.7581 326.714 57.2023 330.307 54.3083L331.546 57.3062H342.739ZM319.554 26.6938C324.963 26.6938 328.953 30.8009 328.953 36.2698C328.953 41.773 324.967 45.8801 319.554 45.8801C314.141 45.8801 310.156 41.7387 310.156 36.2698C310.156 30.8009 314.146 26.6938 319.554 26.6938Z" fill="#006A61"/>
<path d="M375.933 57.349L365.407 39.5332V57.349H350.928V0H365.407V31.7216L375.416 15.2163H391.676L378.573 35.2976L393 57.349H375.933Z" fill="#006A61"/>
<path d="M383.29 6.85225H386.686L386.664 6.86509C386.686 6.86583 386.706 6.87197 386.724 6.88271C386.733 6.88827 386.742 6.89505 386.749 6.90296C386.772 6.92613 386.784 6.95708 386.784 6.9893V7.49464L386.784 7.50202C386.783 7.51515 386.78 7.52797 386.776 7.54006C386.77 7.55517 386.761 7.5691 386.749 7.58098C386.745 7.58544 386.74 7.58954 386.736 7.59327C386.731 7.59682 386.726 7.60003 386.721 7.60287C386.704 7.6126 386.684 7.61815 386.664 7.61884H385.383V11.2805C385.383 11.2965 385.38 11.3121 385.374 11.3267C385.368 11.3421 385.358 11.3563 385.346 11.3683C385.323 11.3916 385.292 11.4047 385.259 11.4047H384.695C384.662 11.4047 384.631 11.3916 384.607 11.3683C384.584 11.345 384.571 11.3134 384.571 11.2805V7.61884H383.29L383.281 7.61856L383.267 7.61671C383.259 7.61513 383.251 7.61265 383.243 7.60932C383.228 7.60303 383.215 7.59382 383.203 7.58222C383.192 7.57063 383.183 7.5569 383.178 7.54185L383.175 7.53472C383.173 7.52735 383.171 7.51978 383.171 7.51212C383.17 7.50633 383.17 7.50049 383.17 7.49464V6.97645C383.169 6.96035 383.172 6.94428 383.178 6.92924C383.18 6.92349 383.183 6.91792 383.186 6.9126C383.191 6.904 383.197 6.89603 383.203 6.88887C383.207 6.88497 383.211 6.88135 383.215 6.87801L383.227 6.86981C383.232 6.86675 383.237 6.86406 383.243 6.86176L383.257 6.85689L383.27 6.85379C383.277 6.85276 383.283 6.85225 383.29 6.85225Z" fill="#006A61"/>
<path d="M391.612 6.85225H390.847C390.821 6.85276 390.796 6.86128 390.776 6.87662C390.755 6.89197 390.74 6.91339 390.732 6.93791L389.706 9.93576C389.692 9.98109 389.677 10.0252 389.663 10.0678C389.641 10.133 389.62 10.1948 389.6 10.2524L389.595 10.2655C389.58 10.2147 389.563 10.1623 389.545 10.1075C389.533 10.07 389.519 10.0314 389.505 9.99143L388.489 6.95075C388.485 6.93568 388.478 6.9217 388.468 6.90956C388.462 6.90136 388.454 6.89402 388.446 6.88774C388.438 6.88193 388.43 6.87717 388.421 6.87354C388.406 6.86745 388.39 6.86453 388.373 6.86509H387.519C387.487 6.8662 387.456 6.87978 387.434 6.90296C387.412 6.92613 387.399 6.95708 387.399 6.9893V11.2719C387.399 11.2869 387.402 11.3016 387.407 11.3154C387.411 11.3252 387.416 11.3346 387.422 11.3433C387.425 11.3486 387.429 11.3536 387.434 11.3583C387.445 11.37 387.459 11.3793 387.473 11.3858C387.488 11.392 387.503 11.3956 387.519 11.3961H388.066C388.085 11.3955 388.104 11.3901 388.121 11.3808C388.132 11.3749 388.142 11.3673 388.151 11.3583C388.173 11.3351 388.185 11.3042 388.185 11.2719V8.36402L389.189 11.3191C389.197 11.3436 389.213 11.365 389.233 11.3803C389.254 11.3957 389.279 11.4042 389.305 11.4047H389.813C389.838 11.4045 389.863 11.3966 389.883 11.3821C389.892 11.3758 389.9 11.3684 389.907 11.3601C389.913 11.3527 389.919 11.3446 389.923 11.3358L389.928 11.3233L390.937 8.41114V11.2805C390.937 11.2954 390.939 11.3101 390.944 11.3238C390.951 11.3404 390.96 11.3556 390.973 11.3683C390.996 11.3916 391.028 11.4047 391.061 11.4047H391.607C391.639 11.4036 391.67 11.39 391.692 11.3668C391.715 11.3437 391.727 11.3127 391.727 11.2805V6.99786C391.727 6.96565 391.715 6.93469 391.692 6.91152C391.684 6.90315 391.675 6.89604 391.665 6.89031C391.648 6.88016 391.628 6.87436 391.607 6.87366L391.612 6.85225Z" fill="#006A61"/>
<path fill-rule="evenodd" clip-rule="evenodd" d="M40.0083 72.134C42.5469 73.3619 45.3292 73.9998 48.1479 74C50.9671 73.9992 53.7498 73.3611 56.2889 72.1332C58.8282 70.9053 61.0584 69.1193 62.814 66.9079C67.0348 71.0921 72.2382 73.2762 77.6851 73.0193C86.0969 72.6295 91.4242 65.5931 92.0052 64.7923C92.0158 64.7795 92.0254 64.7645 92.035 64.7496C92.0447 64.7345 92.0543 64.7195 92.065 64.7066C96.9095 57.7173 96.4525 51.2163 96.085 45.9914C95.9142 43.5546 93.7354 33.7773 89.3437 24.0128C83.2047 10.3555 75.4594 2.5439 66.3171 0.78802C58.1445 -0.779433 51.5655 3.56746 48.1479 6.11563C44.7473 3.56746 38.1555 -0.779433 29.9829 0.78802C20.8407 2.5439 13.091 10.3555 6.95208 24.0128C2.56463 33.7773 0.381538 43.5546 0.210696 45.9914C-0.15675 51.2163 -0.609617 57.7173 4.2307 64.7066L4.29485 64.7923C4.87579 65.5931 10.2031 72.6295 18.6106 73.0193C24.0874 73.2805 29.2738 71.0878 33.486 66.9079C35.2402 69.1196 37.4697 70.9061 40.0083 72.134ZM41.4919 59.8715L38.7493 55.9186L38.7108 55.9143C38.1419 55.078 37.3739 54.3971 36.4763 53.9334C35.5787 53.4697 34.5799 53.2377 33.5703 53.2585C32.5608 53.2794 31.5723 53.5524 30.6945 54.0527C29.8168 54.5531 29.0773 55.2651 28.5433 56.1242C27.3214 58.0856 23.9635 62.6253 19.0848 62.4026C16.2694 62.2698 13.655 59.5974 12.8774 58.5739C10.3398 54.8779 10.4252 51.6617 10.767 46.7709C11.2497 42.0128 18.9652 13.7173 31.9567 11.2248C36.2843 10.3983 40.3983 13.5418 42.6113 15.2548L42.649 15.2836C43.2763 15.7626 43.775 16.1434 44.2944 16.4625C45.3217 17.1303 46.4937 17.5415 47.7121 17.6617C47.9965 17.6837 48.2821 17.6837 48.5665 17.6617C49.7843 17.5417 50.956 17.132 51.9842 16.4668C52.5139 16.1371 53.0266 15.7473 53.6674 15.2548L53.6696 15.2532C55.8831 13.5568 60.0043 10.3985 64.3221 11.2248C77.3007 13.7045 85.0161 41.97 85.5159 46.7709C85.8577 51.6788 85.9345 54.8865 83.414 58.5739C82.5937 59.6531 79.9964 62.2955 77.1938 62.4283C72.3194 62.6467 68.9572 58.1113 67.7098 56.1028C67.1729 55.2438 66.4298 54.5335 65.5484 54.0367C64.667 53.54 63.6755 53.2726 62.6644 53.2591C61.6668 53.2543 60.6831 53.4936 59.7986 53.9564C58.9143 54.4191 58.1558 55.0912 57.5892 55.9143L54.8465 59.8715C54.0998 60.9545 53.1022 61.8397 51.9391 62.4512C50.7761 63.0626 49.4825 63.382 48.1693 63.382C46.856 63.382 45.5623 63.0626 44.3993 62.4512C43.2363 61.8397 42.2386 60.9545 41.4919 59.8715Z" fill="#FFDF5A"/>
</g>
<defs>
<clipPath id="clip0_9468_9204">
<rect width="393" height="74" fill="white"/>
</clipPath>
</defs>
</svg>
