<svg width="280" height="214" viewBox="0 0 280 214" fill="none" xmlns="http://www.w3.org/2000/svg">
<path d="M140 214C131.806 213.998 123.717 212.142 116.337 208.569C108.957 204.996 102.476 199.799 97.3755 193.365C85.1186 205.532 69.9995 211.907 54.1204 211.21C29.655 210.074 14.164 189.601 12.4823 187.282L12.3044 187.022C-1.77977 166.614 -0.45382 147.699 0.61341 132.498C1.11468 125.409 7.45338 96.955 20.2116 68.5495C37.9988 28.8045 60.637 6.06062 87.1722 0.966775C110.942 -3.59173 130.104 9.078 140 16.4592C149.896 9.04556 169.106 -3.59173 192.828 0.966775C219.412 6.06062 241.937 28.8045 259.788 68.5495C272.547 96.955 278.885 125.409 279.387 132.498C280.454 147.699 281.78 166.566 267.696 186.957L267.518 187.217C265.901 189.537 250.345 210.009 225.88 211.145C210.049 211.891 194.914 205.548 182.641 193.3C177.543 199.747 171.062 204.956 163.679 208.54C156.296 212.124 148.202 213.99 140 214ZM112.608 161.374L120.58 172.892C122.757 176.031 125.659 178.595 129.038 180.366C132.416 182.137 136.172 183.062 139.984 183.062C143.796 183.062 147.551 182.137 150.93 180.366C154.309 178.595 157.211 176.031 159.388 172.892L167.36 161.374C169.01 158.954 171.233 156.982 173.83 155.636C176.426 154.289 179.315 153.609 182.238 153.657C185.16 153.705 188.025 154.48 190.576 155.912C193.127 157.344 195.284 159.388 196.854 161.861C200.476 167.701 210.243 180.906 224.343 180.257C232.429 179.884 240.045 172.146 242.422 169.096C249.763 158.357 249.537 149.013 248.534 134.753C247.095 120.77 224.667 38.5704 186.926 31.3352C174.362 28.9181 162.363 38.1162 155.944 43.0478C154.068 44.4916 152.58 45.6272 151.093 46.5843C148.106 48.5172 144.702 49.7074 141.164 50.0559C140.346 50.1208 139.524 50.1208 138.706 50.0559C135.169 49.7074 131.765 48.5172 128.778 46.5843C127.161 45.6272 125.754 44.4916 123.927 43.0478C117.459 38.1811 105.525 28.9181 92.9449 31.3352C55.1715 38.5866 32.7435 120.916 31.3367 134.786C30.3341 149.013 30.0916 158.373 37.4813 169.129C39.729 172.097 47.3289 179.884 55.5272 180.257C69.7084 180.922 79.4752 167.701 83.0164 161.991C84.5721 159.493 86.7235 157.423 89.2762 155.969C91.829 154.514 94.7027 153.72 97.6379 153.659C100.573 153.598 103.477 154.271 106.088 155.618C108.699 156.965 110.934 158.944 112.592 161.374H112.608Z" fill="white"/>
</svg>
